<svg width="1200" height="216" viewBox="0 0 1200 216" fill="none" xmlns="http://www.w3.org/2000/svg">
<mask id="mask0" style="mask-type:alpha" maskUnits="userSpaceOnUse" x="0" y="0" width="1200" height="216">
<rect width="1200" height="216" rx="16" fill="#3671E9"/>
</mask>
<g mask="url(#mask0)">
<path d="M1184.65 155.394C1187.5 135.967 1172.76 125.453 1152.42 118.483L1159.05 92.0848L1143.05 88.0851L1136.65 113.797C1132.42 112.769 1128.08 111.74 1123.74 110.826L1130.14 84.9997L1114.14 81L1107.62 107.284C1104.08 106.484 1100.65 105.684 1097.34 104.884V104.769L1075.17 99.2842L1070.94 116.426C1070.94 116.426 1082.83 119.168 1082.6 119.282C1089.11 120.882 1090.25 125.225 1090.02 128.653L1082.48 158.708C1082.94 158.822 1083.51 158.936 1084.2 159.279C1083.63 159.165 1083.05 159.051 1082.48 158.822L1071.97 200.876C1071.17 202.818 1069.11 205.79 1064.66 204.647C1064.77 204.875 1053 201.79 1053 201.79L1045 220.188L1065.91 225.445C1069.8 226.474 1073.57 227.388 1077.34 228.416L1070.71 255.043L1086.71 259.042L1093.34 232.644C1097.68 233.787 1102.02 234.93 1106.14 235.958L1099.62 262.242L1115.62 266.242L1122.25 239.615C1149.68 244.758 1170.25 242.701 1178.82 217.903C1185.79 198.019 1178.47 186.477 1164.08 178.935C1174.7 176.535 1182.59 169.564 1184.65 155.394ZM1147.96 206.818C1143.05 226.702 1109.45 215.96 1098.6 213.217L1107.39 177.906C1118.25 180.649 1153.22 186.02 1147.96 206.818ZM1152.99 155.051C1148.42 173.221 1120.54 163.964 1111.51 161.679L1119.51 129.682C1128.54 131.967 1157.68 136.195 1152.99 155.051Z" fill="url(#paint0_linear)"/>
<path d="M101.41 155.686L22 108.823L101.361 220.698L180.812 108.823L101.361 155.686H101.41ZM102.59 -38L23.2126 93.7462L102.59 140.69L182 93.7946L102.59 -38Z" fill="url(#paint1_linear)"/>
</g>
<defs>
<linearGradient id="paint0_linear" x1="1115" y1="81" x2="1115" y2="266.242" gradientUnits="userSpaceOnUse">
<stop stop-color="white" stop-opacity="0.16"/>
<stop offset="1" stop-color="white" stop-opacity="0"/>
</linearGradient>
<linearGradient id="paint1_linear" x1="102" y1="-38" x2="102" y2="186.414" gradientUnits="userSpaceOnUse">
<stop stop-color="white" stop-opacity="0.16"/>
<stop offset="1" stop-color="white" stop-opacity="0"/>
</linearGradient>
</defs>
</svg>
